<svg width="512" height="512" viewBox="0 0 512 512" fill="none" xmlns="http://www.w3.org/2000/svg">
<mask id="mask0_1_2" style="mask-type:alpha" maskUnits="userSpaceOnUse" x="81" y="81" width="350" height="350">
<rect x="81" y="81" width="350" height="350" rx="28" fill="#D9D9D9"/>
</mask>
<g mask="url(#mask0_1_2)">
<rect x="202" y="-16.6498" width="80" height="478" transform="rotate(-38.0885 202 -16.6498)" fill="#FA9845"/>
<rect x="256" y="-76.6498" width="80" height="478" transform="rotate(-38.0885 256 -76.6498)" fill="#FBAE3C"/>
<rect x="139" y="32.3502" width="80" height="478" transform="rotate(-38.0885 139 32.3502)" fill="#C55469"/>
<rect x="90" y="81.3502" width="80" height="478" transform="rotate(-38.0885 90 81.3502)" fill="#96446E"/>
<rect x="18" y="111.35" width="80" height="527.095" transform="rotate(-38.0885 18 111.35)" fill="#623965"/>
<rect x="-32" y="166.35" width="80" height="527.095" transform="rotate(-38.0885 -32 166.35)" fill="#312C4F"/>
<rect x="-55" y="258.35" width="80" height="527.095" transform="rotate(-38.0885 -55 258.35)" fill="#0C1C30"/>
<path d="M276.4 316.18H237.98C231.18 316.18 227.1 312.1 228.46 304.96C236.62 258.72 270.62 263.48 277.76 228.8C279.8 218.6 274.36 206.36 261.1 206.36C245.12 206.36 237.3 215.2 234.92 229.14C233.9 235.94 230.5 239 223.7 237.64L184.94 229.14C178.82 227.78 175.76 224.04 176.1 217.92C178.14 193.44 191.06 147.88 261.1 147.88C337.26 147.88 339.98 208.06 339.64 218.26C339.64 274.7 300.2 279.46 287.96 307.68C285.58 313.46 282.52 316.18 276.4 316.18ZM275.04 333.52H236.96C230.5 333.52 226.76 336.92 226.76 343.72V381.8C226.76 388.26 230.5 392 236.96 392H275.04C281.84 392 285.24 388.26 285.24 381.8V343.72C285.24 336.92 281.84 333.52 275.04 333.52Z" fill="#0C1C30"/>
</g>
</svg>
